<?xml version="1.0" encoding="utf-8"?>
<!-- Generator: Adobe Illustrator 19.0.0, SVG Export Plug-In . SVG Version: 6.00 Build 0)  -->
<svg version="1.1" id="Layer_1" xmlns="http://www.w3.org/2000/svg" xmlns:xlink="http://www.w3.org/1999/xlink" x="0px" y="0px"
	 viewBox="-167.1 770.4 143.6 118.2" style="enable-background:new -167.1 770.4 143.6 118.2;" xml:space="preserve">
<style type="text/css">
	.st0{fill:#B5576E;}
	.st1{fill:#CE6176;}
	.st2{fill:#E8C1B5;}
	.st3{fill:#C7917F;}
	.st4{fill:#451712;}
	.st5{fill:#E1E9F2;}
	.st6{display:none;}
	.st7{display:inline;fill:#FF5845;}
</style>
<path class="st0" d="M-57.6,858.6c0,0-10.7,19.7-33.4,12.7c-3.1-0.9-6.3-0.9-9.4,0c-22.7,7-33.4-12.7-33.4-12.7
	c15.3-1.1,22.3-13.9,23.7-16.8c0.2-0.4,0.5-0.6,0.9-0.8l2.8-0.9c7-2.2,14.5-2.2,21.5,0l2.8,0.9c0.4,0.1,0.7,0.4,0.9,0.8
	C-79.9,844.7-72.9,857.5-57.6,858.6z"/>
<path class="st1" d="M-95.7,844.6v24.7c0,8.8-7.2,15.9-16,15.9h-10.7c-12.3,0-22.2-9.9-22.2-22.2v-39.7c0-6-4.8-10.8-10.8-10.8h-3.6
	c-1.9,0-3.6-0.8-4.9-2c-1.2-1.2-2-3-2-4.9c0-1,0.8-1.8,1.8-1.8h14c10.5,0,19.1,8.5,19.1,19v29.8c0,6.5,5.3,11.7,11.8,11.7h3.1
	c4.3,0,7.9-3.5,7.9-7.8v-12.1L-95.7,844.6L-95.7,844.6z"/>
<g>
	<path class="st2" d="M-95.7,844.6v24.7c0,8.8-7.2,15.9-16,15.9h-10.7c-12.3,0-22.2-9.9-22.2-22.2v-39.7c0-6-4.8-10.8-10.8-10.8
		h-0.8l0,0h7.6c5.8,0,10.5,4.7,10.5,10.4v34c0,10.6,8.6,19.2,19.3,19.2h5.1c6.9,0,12.5-5.6,12.5-12.5v-19.1L-95.7,844.6L-95.7,844.6
		z"/>
	<path class="st2" d="M-95.7,844.6v24.7c0,8.8-7.1,15.9-16,15.9h-10.7c-12.3,0-22.2-9.9-22.2-22.2v-39.7c0-6-4.8-10.8-10.8-10.8
		h-0.8l0,0h7.6c5.7,0,10.3,4.5,10.4,10.1c0,0.1,0,0.2,0,0.3v34c0,10.6,8.6,19.2,19.3,19.2h5.1c6.9,0,12.5-5.6,12.5-12.5v-19.1
		L-95.7,844.6L-95.7,844.6z"/>
</g>
<g>
	<path class="st3" d="M-112.4,876.2h5.1c5.2,0,9.7-3.2,11.6-7.8v-23.8h-5.5v19.1c0,6.7-5.2,12.1-11.8,12.4
		C-112.8,876.2-112.6,876.2-112.4,876.2z"/>
	<path class="st3" d="M-115.9,885.3h-6.4c-12.3,0-22.2-9.9-22.2-22.2v-39.7c0-6-4.8-10.8-10.8-10.8h-0.8l0,0h7.6
		c5.7,0,10.3,4.5,10.4,10.1c0,0.3,0,0.5,0,0.7v39.7C-138.1,875.3-128.2,885.3-115.9,885.3z"/>
</g>
<path class="st1" d="M-95.7,844.6v24.7c0,8.8,7.2,15.9,16,15.9H-69c12.3,0,22.2-9.9,22.2-22.2v-39.7c0-6,4.8-10.8,10.8-10.8h3.6
	c1.9,0,3.6-0.8,4.9-2c1.2-1.2,2-3,2-4.9c0-1-0.8-1.8-1.8-1.8h-14c-10.5,0-19.1,8.5-19.1,19v29.8c0,6.5-5.3,11.7-11.8,11.7h-3.1
	c-4.3,0-7.9-3.5-7.9-7.8v-12.1L-95.7,844.6L-95.7,844.6z"/>
<path class="st2" d="M-95.7,844.6v24.7c0,8.8,7.2,15.9,16,15.9H-69c12.3,0,22.2-9.9,22.2-22.2v-39.7c0-6,4.8-10.8,10.8-10.8h0.8l0,0
	h-7.6c-5.8,0-10.5,4.7-10.5,10.4v34c0,10.6-8.6,19.2-19.3,19.2h-5.1c-6.9,0-12.5-5.6-12.5-12.5v-19.1L-95.7,844.6L-95.7,844.6z"/>
<path class="st1" d="M-84.3,849.2h-22.8c-0.7,0-1.2-0.5-1.2-1.2v-26.7c0-0.7,0.5-1.2,1.2-1.2h22.8c0.7,0,1.2,0.5,1.2,1.2V848
	C-83.1,848.7-83.6,849.2-84.3,849.2z"/>
<path class="st0" d="M-102.4,848v-26.7c0-0.7,0.5-1.2,1.2-1.2h-5.9c-0.7,0-1.2,0.5-1.2,1.2V848c0,0.7,0.5,1.2,1.2,1.2h5.9
	C-101.8,849.2-102.4,848.7-102.4,848z"/>
<path class="st1" d="M-85.5,830h-20.3c-6.3,0-11.3-5.1-11.3-11.3v-24.2c0-11.8,9.6-21.4,21.4-21.4h0c11.8,0,21.4,9.6,21.4,21.4v24.2
	C-74.2,824.9-79.3,830-85.5,830z"/>
<path class="st0" d="M-111.2,818.7v-24.2c0-10.8,8.1-19.8,18.5-21.2c-1-0.1-1.9-0.2-2.9-0.2h0c-11.8,0-21.4,9.6-21.4,21.4v24.2
	c0,6.3,5.1,11.3,11.3,11.3h5.9C-106.2,830-111.2,824.9-111.2,818.7z"/>
<g>
	<circle class="st4" cx="-107.6" cy="789.9" r="2.2"/>
	<circle class="st4" cx="-103.9" cy="802.3" r="2.2"/>
	<circle class="st4" cx="-95.7" cy="795.4" r="2.2"/>
	<circle class="st4" cx="-86.7" cy="802.3" r="2.2"/>
	<circle class="st4" cx="-83.1" cy="789.9" r="2.2"/>
</g>
<g>
	<ellipse class="st5" cx="-108.3" cy="833.2" rx="7.1" ry="7.1"/>
	<ellipse class="st5" cx="-83.1" cy="833.2" rx="7.1" ry="7.1"/>
</g>
<g>
	<circle class="st4" cx="-83.1" cy="833.2" r="2.2"/>
	<circle class="st4" cx="-108.3" cy="833.2" r="2.2"/>
</g>
<text transform="matrix(1 0 0 1 -45.6027 1097.119)" style="display:none;fill:#FF5845; font-family:'MinionPro-Regular'; font-size:83.2236px;">orkStarter</text>
<text transform="matrix(1 0 0 1 -121.6027 1094.119)" style="display:none;fill:#FF5845; font-family:'MinionPro-Regular'; font-size:83.2236px;">orkStarter</text>
</svg>
