<?xml version="1.0" encoding="utf-8"?>
<!-- Generator: Adobe Illustrator 19.0.0, SVG Export Plug-In . SVG Version: 6.00 Build 0)  -->
<svg version="1.1" id="Layer_1" xmlns="http://www.w3.org/2000/svg" xmlns:xlink="http://www.w3.org/1999/xlink" x="0px" y="0px"
	 viewBox="-52 176.3 489.6 489.6" style="enable-background:new -52 176.3 489.6 489.6;" xml:space="preserve">
<style type="text/css">
	.st0{fill:#2C2F33;}
	.st1{fill:#CF4E87;}
</style>
<g>
	<g>
		<path class="st0" d="M118.5,571.6c0,2.2,0.7,4.3,2,6l64.4,84.4c1.9,2.5,4.8,3.9,7.9,3.9c3.1,0,6-1.4,7.9-3.9l64.4-84.4
			c1.3-1.7,2-3.8,2-6V300.5c0-5.5-4.4-9.9-9.9-9.9s-9.9,4.4-9.9,9.9v267.8l-54.5,71.4l-54.5-71.4V301c0-5.5-4.4-9.9-9.9-9.9
			s-9.9,4.4-9.9,9.9L118.5,571.6L118.5,571.6z"/>
		<path class="st0" d="M182.9,301v249c0,5.5,4.4,9.9,9.9,9.9s9.9-4.4,9.9-9.9V301c0-5.5-4.4-9.9-9.9-9.9S182.9,295.5,182.9,301z"/>
		<path class="st1" d="M118.5,215.2v44.3c0,5.5,4.4,9.9,9.9,9.9h128.7c5.5,0,9.9-4.4,9.9-9.9v-44.3c0-21.4-17.4-38.9-38.9-38.9
			h-70.7C136,176.3,118.5,193.7,118.5,215.2z M247.3,215.2v34.4h-109v-34.4c0-10.5,8.6-19.1,19.1-19.1h70.7
			C238.7,196.1,247.3,204.6,247.3,215.2z"/>
	</g>
</g>
</svg>
