<?xml version="1.0" encoding="utf-8"?>
<!-- Generator: Adobe Illustrator 19.0.0, SVG Export Plug-In . SVG Version: 6.00 Build 0)  -->
<svg version="1.1" id="Ebene_1" xmlns="http://www.w3.org/2000/svg" xmlns:xlink="http://www.w3.org/1999/xlink" x="0px" y="0px"
	 viewBox="880 -880 1792 1792" style="enable-background:new 880 -880 1792 1792;" xml:space="preserve">
<style type="text/css">
	.st0{fill:#CF4E87;}
</style>
<path class="st0" d="M2224,592c0-17.3-6.3-32.3-19-45s-27.7-19-45-19s-32.3,6.3-45,19s-19,27.7-19,45s6.3,32.3,19,45s27.7,19,45,19
	s32.3-6.3,45-19S2224,609.3,2224,592z M2480,592c0-17.3-6.3-32.3-19-45s-27.7-19-45-19s-32.3,6.3-45,19s-19,27.7-19,45
	s6.3,32.3,19,45s27.7,19,45,19s32.3-6.3,45-19S2480,609.3,2480,592z M2608,368v320c0,26.7-9.3,49.3-28,68s-41.3,28-68,28H1040
	c-26.7,0-49.3-9.3-68-28s-28-41.3-28-68V368c0-26.7,9.3-49.3,28-68s41.3-28,68-28h427c14,37.3,37.5,68,70.5,92s69.8,36,110.5,36h256
	c40.7,0,77.5-12,110.5-36s56.5-54.7,70.5-92h427c26.7,0,49.3,9.3,68,28S2608,341.3,2608,368z M2283-280c-11.3,26.7-31,40-59,40h-256
	v448c0,17.3-6.3,32.3-19,45s-27.7,19-45,19h-256c-17.3,0-32.3-6.3-45-19s-19-27.7-19-45v-448h-256c-28,0-47.7-13.3-59-40
	c-11.3-26-6.7-49,14-69l448-448c12-12.7,27-19,45-19s33,6.3,45,19l448,448C2289.7-329,2294.3-306,2283-280z"/>
</svg>
